# This file uses centimeters as units for non-parametric coordinates.

mtllib UVs_big_rock2_low.mtl
g default
v -79.585301 -13.344750 -61.273636
v -54.532289 -13.849905 -75.976946
v -64.361703 62.390721 -59.990470
v -23.840143 80.329698 -70.021416
v -81.988917 69.262713 -90.329182
v -55.504934 79.108379 -120.245685
v -95.733642 -13.430815 -80.636624
v -67.628224 -18.561462 -95.494029
v -78.554924 35.043073 -51.397034
v -34.285186 33.371982 -80.120273
v -106.948937 31.926619 -86.701924
v -85.125781 10.470768 -50.992509
v -39.431884 -1.824921 -78.359707
v -57.674339 -10.885919 -114.842873
v -103.018895 10.470768 -81.480640
v -96.161960 53.941494 -91.533718
v -57.400569 64.520099 -126.901527
v -31.202064 54.498785 -81.002632
v -66.701981 53.359285 -58.157242
v -68.052575 -13.577295 -68.042053
v -84.281867 -10.074833 -92.361841
v -82.411027 9.335851 -99.337993
v -86.405088 29.154447 -106.436074
v -81.600761 59.204287 -105.517599
v -71.061834 72.545978 -104.113265
v -48.026046 72.545978 -64.862515
v -50.034106 53.279230 -63.733680
v -57.701323 34.702505 -57.235055
v -64.995308 8.494926 -56.293818
v -108.337882 30.013993 -75.135667
v -91.024163 36.914948 -44.730378
v -88.213899 56.775741 -48.472638
v -103.755669 57.411408 -80.714291
v -75.023893 72.236565 -57.601270
v -92.267243 70.942900 -83.359477
v -73.634056 72.604859 -75.413970
v -34.817256 77.851940 -97.617803
v -40.718333 62.693855 -103.629386
v -37.465759 36.638030 -95.541082
v -43.495472 8.005323 -95.129970
v -57.053990 -11.594107 -88.213115
v -87.712591 -11.483838 -70.200417
v -94.147758 10.470768 -66.365082
v -99.970301 23.114611 -69.305113
v -101.244348 28.479119 -61.675985
v -96.167001 62.441979 -64.907346
v -81.989457 73.884165 -66.335700
v -65.551152 77.775740 -101.985318
v -57.475628 78.015517 -86.289444
v -36.974338 80.672663 -96.867160
v -54.202020 80.594603 -114.043643
v -70.962675 75.201556 -78.651085
v -74.674066 75.190454 -91.076637
v -61.775588 71.173108 -65.485371
v -48.245928 77.657264 -70.779649
v -35.461505 83.691258 -80.068061
v -62.084214 84.023769 -104.096442
v -53.970149 84.258229 -88.351109
v -42.965925 92.091279 -97.794531
v -52.797865 89.331588 -105.689782
v -45.933170 84.018583 -75.083709
v -37.793536 89.890920 -81.935685
v -65.376959 83.251458 -81.420039
v -57.269052 86.348635 -84.338095
v -64.720259 82.362097 -96.527993
v -68.324811 80.964466 -94.673932
v -56.392305 81.080540 -69.346471
v -51.500141 85.852054 -75.606445
v -63.944608 -23.223647 -83.059654
v -72.838382 -23.224085 -77.201694
v -77.017183 -26.183708 -83.439773
v -68.416394 -26.018292 -89.166459
v -84.365841 -19.609344 -79.663699
v -80.402903 -23.200595 -72.152609
v -67.971093 -20.216003 -71.276870
v -59.433142 -20.404854 -76.899513
v -76.677645 -19.304806 -67.177942
v -87.848614 19.467986 -120.261252
v -83.253875 51.875307 -130.759166
v -58.743026 51.339165 -134.339378
v -66.695276 16.775464 -137.746280
v -46.104651 49.880809 -117.839591
v -39.249893 27.575770 -118.721285
v -45.540342 6.856296 -119.401351
v -54.351770 -6.799278 -121.866947
v -83.684322 5.585630 -114.999832
v -30.466718 53.701505 -66.973266
v -31.820672 34.177429 -63.016329
v -41.999969 4.089994 -62.350369
vt 0.870485 0.360387
vt 0.870304 0.426761
vt 0.633451 0.262175
vt 0.722333 0.262417
vt 0.556052 0.333517
vt 0.556247 0.261965
vt 0.633649 0.189442
vt 0.722532 0.189684
vt 0.870901 0.207694
vt 0.487770 0.107748
vt 0.633870 0.108146
vt 0.722753 0.108388
vt 0.871171 0.108792
vt 0.491718 0.261789
vt 0.491916 0.189056
vt 0.556667 0.107935
vt 0.634103 0.022940
vt 0.722985 0.023182
vt 0.796871 0.023383
vt 0.871403 0.023586
vt 0.930110 0.108952
vt 0.929841 0.207855
vt 0.400965 0.261542
vt 0.328275 0.107313
vt 0.410232 0.022330
vt 0.488002 0.022542
vt 0.556899 0.022730
vt 0.930342 0.023747
vt 0.987114 0.109108
vt 0.986845 0.208010
vt 0.328507 0.022107
vt 0.987346 0.023902
vt 0.978248 0.671022
vt 0.848314 0.918706
vt 0.880918 0.756029
vt 0.881392 0.670485
vt 0.816577 0.985966
vt 0.816789 0.918607
vt 0.977298 0.842501
vt 0.880442 0.841964
vt 0.777905 0.755458
vt 0.778379 0.669914
vt 0.881851 0.587665
vt 0.734396 0.985707
vt 0.734609 0.918348
vt 0.777428 0.841393
vt 0.633726 0.985390
vt 0.633938 0.918031
vt 0.734818 0.851641
vt 0.816999 0.851899
vt 0.589621 0.985251
vt 0.589833 0.917893
vt 0.634148 0.851324
vt 0.590043 0.851185
vt 0.410451 0.753421
vt 0.615043 0.586186
vt 0.484018 0.668282
vt 0.483544 0.753827
vt 0.409974 0.839356
vt 0.483068 0.839761
vt 0.542882 0.574359
vt 0.542882 0.478980
vt 0.733915 0.478980
vt 0.733915 0.574359
vt 0.542882 0.345887
vt 0.733915 0.345887
vt 0.349295 0.667535
vt 0.348821 0.753080
vt 0.277629 0.752685
vt 0.278104 0.667140
vt 0.348344 0.839014
vt 0.277153 0.838620
vt 0.278563 0.584321
vt 0.276829 0.897069
vt 0.278974 0.510198
vt 0.689378 0.586598
vt 0.482310 0.976411
vt 0.276396 0.975270
vt 0.350392 0.469731
vt 0.279200 0.469336
vt 0.688919 0.669418
vt 0.614584 0.669006
vt 0.561934 0.976853
vt 0.562367 0.898652
vt 0.279686 0.381634
vt 0.350878 0.382028
vt 0.688444 0.754962
vt 0.614110 0.754550
vt 0.563642 0.668723
vt 0.562691 0.840202
vt 0.563167 0.754268
vt 0.257825 0.393784
vt 0.156658 0.393366
vt 0.156658 0.354945
vt 0.257984 0.355364
vt 0.156658 0.441603
vt 0.257624 0.442022
vt 0.080000 0.354623
vt 0.079840 0.393044
vt 0.156658 0.298838
vt 0.258218 0.298838
vt 0.079639 0.441282
vt 0.257311 0.517261
vt 0.156658 0.516843
vt 0.080233 0.298838
vt 0.156658 0.222538
vt 0.258536 0.222538
vt 0.079326 0.516521
vt 0.156658 0.644834
vt 0.909285 0.976230
vt 0.156658 0.167703
vt 0.258763 0.168122
vt 0.078794 0.644512
vt 0.951089 0.924034
vt 0.156658 0.063800
vt 0.259196 0.064218
vt 0.351393 0.289067
vt 0.280202 0.288675
vt 0.415025 0.574359
vt 0.415025 0.478980
vt 0.415025 0.345887
vt 0.077762 0.892516
vt 0.156658 0.892838
vt 0.156658 0.988133
vt 0.077366 0.987811
vt 0.078196 0.788159
vt 0.156658 0.788481
vt 0.255747 0.893256
vt 0.255351 0.988551
vt 0.013964 0.987547
vt 0.014360 0.892252
vt 0.256181 0.788899
vt 0.014794 0.787895
vt 0.256779 0.645252
vt 0.891463 0.877948
vt 0.848524 0.851999
vt 0.977774 0.756566
vt 0.848101 0.986065
vt 0.978708 0.588202
vt 0.080551 0.222538
vt 0.687968 0.840897
vt 0.348020 0.897464
vt 0.349754 0.584715
vt 0.347587 0.975665
vt 0.350165 0.510593
vt 0.882262 0.513543
vt 0.482744 0.898211
vt 0.410925 0.667877
vt 0.613634 0.840485
vt 0.564101 0.585903
vt 0.778838 0.587094
vt 0.779249 0.512972
vt 0.556445 0.189232
vt 0.410000 0.107536
vt 0.401163 0.188809
vt 0.795773 0.426558
vt 0.633256 0.333727
vt 0.796221 0.262198
vt 0.796639 0.108589
vn 0.615655 0.029913 0.787448
vn 0.707792 -0.050430 0.704618
vn 0.981940 -0.189129 -0.004836
vn 0.983272 -0.157876 -0.090836
vn -0.440746 0.869104 0.224504
vn -0.420939 0.873466 0.244676
vn -0.424751 0.872688 0.240836
vn -0.440746 0.869104 0.224504
vn -0.475456 -0.298314 -0.827617
vn -0.419838 -0.017424 -0.907432
vn -0.419838 -0.017424 -0.907432
vn -0.471025 -0.266128 -0.841018
vn 0.196180 -0.934097 0.298288
vn 0.071559 -0.951261 0.299971
vn -0.039343 -0.970827 0.236532
vn 0.203017 -0.934244 0.293212
vn 0.656846 0.044089 -0.752735
vn 0.639436 -0.033076 -0.768133
vn 0.634823 -0.050871 -0.770981
vn 0.656846 0.044089 -0.752735
vn -0.885180 0.199682 0.420218
vn -0.877912 0.193636 0.437921
vn -0.803286 0.437104 0.404562
vn -0.851106 0.380719 0.361486
vn 0.707792 -0.050430 0.704618
vn 0.598864 -0.294279 0.744823
vn 0.921754 -0.363942 0.133851
vn 0.981940 -0.189129 -0.004836
vn 0.639436 -0.033076 -0.768133
vn 0.591603 -0.188166 -0.783964
vn 0.591603 -0.188166 -0.783964
vn 0.634823 -0.050871 -0.770981
vn -0.487677 -0.582130 -0.650612
vn -0.475456 -0.298314 -0.827617
vn -0.471025 -0.266128 -0.841018
vn -0.487677 -0.582130 -0.650612
vn -0.857435 -0.215184 0.467441
vn -0.803402 -0.151893 0.575737
vn -0.850676 -0.059028 0.522366
vn -0.903507 -0.163599 0.396118
vn 0.598864 -0.294279 0.744823
vn 0.302359 -0.594791 0.744850
vn 0.921754 -0.363942 0.133851
vn 0.863225 -0.435744 -0.254891
vn 0.714061 -0.669004 -0.206278
vn 0.746549 -0.657104 -0.104301
vn 0.739985 -0.671707 -0.035101
vn -0.612281 -0.369349 -0.699066
vn -0.638002 -0.325732 -0.697748
vn -0.595701 -0.410768 -0.690225
vn -0.558491 -0.452114 -0.695472
vn -0.780438 -0.339693 0.524904
vn -0.757815 -0.396154 0.518438
vn -0.803402 -0.151893 0.575737
vn -0.857435 -0.215184 0.467441
vn -0.699409 0.395591 -0.595260
vn -0.661401 0.577328 -0.478791
vn -0.664676 0.531733 -0.524848
vn -0.676935 0.465833 -0.569877
vn 0.886135 0.072120 -0.457781
vn 0.866386 -0.026079 -0.498693
vn 0.775997 0.063825 -0.627499
vn 0.772719 0.098991 -0.626982
vn 0.398001 -0.005647 0.917368
vn 0.615655 0.029913 0.787448
vn 0.983272 -0.157876 -0.090836
vn -0.851106 0.380719 0.361486
vn -0.803286 0.437104 0.404562
vn -0.570168 0.721026 0.393737
vn -0.669094 0.718575 0.189639
vn -0.324766 -0.933919 0.149410
vn -0.039343 -0.970827 0.236532
vn 0.071559 -0.951261 0.299971
vn -0.070428 -0.951942 0.298070
vn -0.655312 -0.282803 -0.700421
vn -0.638002 -0.325732 -0.697748
vn -0.612281 -0.369349 -0.699066
vn -0.644548 -0.315359 -0.696496
vn -0.767041 -0.040379 -0.640327
vn -0.693427 -0.078490 -0.716239
vn -0.638002 -0.325732 -0.697748
vn -0.655312 -0.282803 -0.700421
vn -0.721296 0.271190 -0.637329
vn -0.699409 0.395591 -0.595260
vn -0.693427 -0.078490 -0.716239
vn -0.767041 -0.040379 -0.640327
vn -0.639316 0.595300 -0.486716
vn -0.661401 0.577328 -0.478791
vn -0.699409 0.395591 -0.595260
vn -0.721296 0.271190 -0.637329
vn -0.351643 0.926526 0.133775
vn -0.341271 0.921458 0.185603
vn -0.382418 0.921269 -0.070855
vn -0.382418 0.921269 -0.070855
vn 0.345740 0.138349 0.928075
vn 0.219280 0.139477 0.965641
vn 0.198830 0.056022 0.978432
vn 0.342538 0.101982 0.933953
vn 0.336387 0.036118 0.941031
vn 0.245698 0.048023 0.968156
vn 0.219280 0.139477 0.965641
vn 0.345740 0.138349 0.928075
vn 0.281529 -0.191899 0.940168
vn 0.259582 -0.236956 0.936199
vn 0.245698 0.048023 0.968156
vn 0.336387 0.036118 0.941031
vn 0.309357 -0.405323 0.860239
vn 0.285772 -0.501744 0.816448
vn 0.259582 -0.236956 0.936199
vn 0.281529 -0.191899 0.940168
vn -0.654028 -0.755127 0.045060
vn -0.364425 -0.890808 0.271395
vn -0.047013 -0.894937 0.443709
vn -0.654028 -0.755127 0.045060
vn 0.336387 0.036118 0.941031
vn 0.345740 0.138349 0.928075
vn 0.431691 0.095290 0.896974
vn 0.441938 0.076144 0.893808
vn -0.721296 0.271190 -0.637329
vn -0.767041 -0.040379 -0.640327
vn -0.904043 0.201807 -0.376802
vn -0.806689 0.304418 -0.506539
vn 0.345740 0.138349 0.928075
vn 0.342538 0.101982 0.933953
vn 0.401019 0.150171 0.903677
vn 0.431691 0.095290 0.896974
vn 0.302732 0.951471 -0.055288
vn 0.193389 0.975481 -0.105063
vn -0.006933 0.981927 -0.189132
vn -0.006933 0.981927 -0.189132
vn -0.639316 0.595300 -0.486716
vn -0.721296 0.271190 -0.637329
vn -0.806689 0.304418 -0.506539
vn -0.556215 0.460142 -0.692022
vn -0.306122 0.892411 0.331499
vn -0.306122 0.892411 0.331499
vn -0.341271 0.921458 0.185603
vn -0.351643 0.926526 0.133775
vn -0.424751 0.872688 0.240836
vn -0.420939 0.873466 0.244676
vn -0.407403 0.876002 0.258152
vn -0.407403 0.876002 0.258152
vn 0.924969 -0.104309 -0.365448
vn 0.866386 -0.026079 -0.498693
vn 0.886135 0.072120 -0.457781
vn 0.919019 -0.025414 -0.393394
vn 0.944088 -0.127824 -0.303907
vn 0.943906 -0.112082 -0.310610
vn 0.866386 -0.026079 -0.498693
vn 0.924969 -0.104309 -0.365448
vn 0.830418 -0.422920 -0.362689
vn 0.863225 -0.435744 -0.254891
vn 0.943906 -0.112082 -0.310610
vn 0.944088 -0.127824 -0.303907
vn 0.645866 -0.655248 -0.391800
vn 0.714061 -0.669004 -0.206278
vn 0.863225 -0.435744 -0.254891
vn 0.830418 -0.422920 -0.362689
vn 0.187650 -0.917250 0.351340
vn 0.071559 -0.951261 0.299971
vn 0.196180 -0.934097 0.298288
vn 0.189571 -0.933892 0.303164
vn -0.070428 -0.951942 0.298070
vn 0.071559 -0.951261 0.299971
vn 0.187650 -0.917250 0.351340
vn 0.184075 -0.889468 0.418285
vn -0.803402 -0.151893 0.575737
vn -0.757815 -0.396154 0.518438
vn -0.745633 -0.402218 0.531274
vn -0.778369 -0.095858 0.620446
vn -0.850676 -0.059028 0.522366
vn -0.803402 -0.151893 0.575737
vn -0.778369 -0.095858 0.620446
vn -0.748997 0.074230 0.658402
vn -0.047013 -0.894937 0.443709
vn -0.364425 -0.890808 0.271395
vn 0.036641 -0.876973 0.479140
vn 0.036641 -0.876973 0.479140
vn -0.803286 0.437104 0.404562
vn -0.877912 0.193636 0.437921
vn -0.869254 0.186694 0.457759
vn -0.798691 0.348057 0.490865
vn -0.570168 0.721026 0.393737
vn -0.803286 0.437104 0.404562
vn -0.798691 0.348057 0.490865
vn -0.500281 0.705759 0.501620
vn 0.530270 0.845783 0.058862
vn 0.193389 0.975481 -0.105063
vn 0.302732 0.951471 -0.055288
vn 0.530270 0.845783 0.058862
vn 0.886135 0.072120 -0.457781
vn 0.772719 0.098991 -0.626982
vn 0.468222 0.775764 -0.423035
vn 0.508410 0.799264 -0.320465
vn -0.664676 0.531733 -0.524848
vn -0.661401 0.577328 -0.478791
vn -0.558350 0.786226 -0.264752
vn -0.526173 0.818759 -0.229729
vn -0.661401 0.577328 -0.478791
vn -0.639316 0.595300 -0.486716
vn -0.603202 0.732443 -0.315713
vn -0.558350 0.786226 -0.264752
vn -0.600058 0.781918 0.168923
vn -0.502499 0.726073 0.469375
vn -0.616529 0.689943 0.379301
vn -0.600058 0.781918 0.168923
vn -0.098522 0.641596 0.760689
vn -0.105544 0.765444 0.634789
vn -0.107220 0.803070 0.586159
vn -0.098522 0.641596 0.760689
vn -0.502499 0.726073 0.469375
vn -0.429804 0.666238 0.609422
vn -0.513583 0.621916 0.591146
vn -0.616529 0.689943 0.379301
vn -0.105544 0.765444 0.634789
vn -0.108643 0.842444 0.527717
vn -0.108643 0.842444 0.527717
vn -0.107220 0.803070 0.586159
vn 0.919019 -0.025414 -0.393394
vn 0.886135 0.072120 -0.457781
vn 0.508410 0.799264 -0.320465
vn 0.531640 0.809307 -0.249764
vn -0.749139 0.544297 0.377534
vn -0.730895 0.547288 0.407761
vn -0.731221 0.547241 0.407239
vn -0.749139 0.544297 0.377534
vn 0.801013 0.411016 -0.435250
vn 0.602424 0.393072 -0.694679
vn 0.602424 0.393072 -0.694679
vn 0.725924 0.408754 -0.553132
vn -0.608496 0.465532 -0.642660
vn -0.608496 0.465532 -0.642660
vn -0.608496 0.465532 -0.642660
vn -0.608496 0.465532 -0.642660
vn -0.730895 0.547288 0.407761
vn -0.711261 0.549638 0.438185
vn -0.711261 0.549638 0.438185
vn -0.731221 0.547241 0.407239
vn 0.403411 0.404006 0.820998
vn 0.403411 0.404007 0.820998
vn 0.403411 0.404006 0.820998
vn 0.403411 0.404006 0.820998
vn 0.898548 0.393767 -0.193802
vn 0.801013 0.411016 -0.435250
vn 0.725924 0.408754 -0.553132
vn 0.898548 0.393767 -0.193802
vn 0.845718 0.150633 -0.511928
vn 0.837919 0.219318 -0.499791
vn 0.837919 0.219318 -0.499791
vn 0.848006 0.116961 -0.516919
vn -0.669822 0.553144 -0.495349
vn -0.669822 0.553144 -0.495349
vn -0.669822 0.553144 -0.495349
vn -0.669822 0.553144 -0.495349
vn -0.721409 0.680924 0.126140
vn -0.616529 0.689943 0.379301
vn -0.665583 0.635344 0.391583
vn -0.721409 0.680924 0.126140
vn 0.313070 0.380754 0.870065
vn 0.313070 0.380754 0.870065
vn 0.313070 0.380754 0.870065
vn 0.313070 0.380754 0.870065
vn 0.849592 0.065610 -0.523344
vn 0.845718 0.150633 -0.511928
vn 0.848006 0.116961 -0.516919
vn 0.849592 0.065610 -0.523344
vn -0.616529 0.689943 0.379301
vn -0.513583 0.621916 0.591146
vn -0.592879 0.571590 0.567256
vn -0.665583 0.635344 0.391583
vn -0.612281 -0.369349 -0.699066
vn -0.558491 -0.452114 -0.695472
vn -0.432825 -0.570585 -0.697921
vn -0.474102 -0.613013 -0.632015
vn 0.746549 -0.657104 -0.104301
vn 0.714061 -0.669004 -0.206278
vn 0.748466 -0.555448 -0.362322
vn 0.726407 -0.544498 -0.419350
vn -0.644548 -0.315359 -0.696496
vn -0.612281 -0.369349 -0.699066
vn -0.474102 -0.613013 -0.632015
vn -0.535350 -0.673722 -0.509410
vn -0.757815 -0.396154 0.518438
vn -0.780438 -0.339693 0.524904
vn -0.635080 -0.682623 0.361523
vn -0.608210 -0.638964 0.470963
vn 0.714061 -0.669004 -0.206278
vn 0.645866 -0.655248 -0.391800
vn 0.774842 -0.567319 -0.278871
vn 0.748466 -0.555448 -0.362322
vn 0.302359 -0.594791 0.744850
vn 0.285772 -0.501744 0.816448
vn 0.442407 -0.439294 0.781854
vn 0.469635 -0.416789 0.778287
vn 0.285772 -0.501744 0.816448
vn 0.309357 -0.405323 0.860239
vn 0.394939 -0.476209 0.785652
vn 0.442407 -0.439294 0.781854
vn -0.745633 -0.402218 0.531274
vn -0.757815 -0.396154 0.518438
vn -0.608210 -0.638964 0.470963
vn -0.572362 -0.585837 0.573757
vn -0.996239 0.068221 0.053416
vn -0.988497 0.150707 0.012713
vn -0.988497 0.150707 0.012713
vn -0.996794 0.050491 0.062069
vn -0.326291 0.813826 -0.480856
vn 0.226990 0.718251 -0.657717
vn 0.000554 0.791241 -0.611504
vn -0.326291 0.813826 -0.480856
vn 0.948738 0.157446 -0.274056
vn 0.987272 -0.048123 -0.151584
vn 0.987941 -0.095674 -0.121735
vn 0.948738 0.157446 -0.274056
vn 0.226990 0.718251 -0.657717
vn 0.787090 0.261513 -0.558660
vn 0.787090 0.261513 -0.558660
vn 0.000554 0.791241 -0.611504
vn 0.987272 -0.048123 -0.151584
vn 0.969926 -0.241987 -0.026192
vn 0.969926 -0.241987 -0.026192
vn 0.987941 -0.095674 -0.121735
vn 0.822898 -0.567847 -0.019706
vn 0.822898 -0.567847 -0.019706
vn 0.822898 -0.567847 -0.019706
vn 0.822898 -0.567847 -0.019706
vn -0.970399 -0.173183 0.168325
vn -0.996239 0.068221 0.053416
vn -0.996794 0.050491 0.062069
vn -0.970399 -0.173183 0.168325
vn -0.533770 -0.843447 -0.060725
vn -0.533770 -0.843447 -0.060725
vn -0.533770 -0.843447 -0.060725
vn -0.533770 -0.843447 -0.060725
vn 0.198830 0.056022 0.978432
vn 0.219280 0.139477 0.965641
vn 0.615655 0.029913 0.787448
vn 0.398001 -0.005647 0.917368
vn 0.219280 0.139477 0.965641
vn 0.245698 0.048023 0.968156
vn 0.707792 -0.050430 0.704618
vn 0.615655 0.029913 0.787448
vn 0.245698 0.048023 0.968156
vn 0.259582 -0.236956 0.936199
vn 0.598864 -0.294279 0.744823
vn 0.707792 -0.050430 0.704618
vn 0.259582 -0.236956 0.936199
vn 0.285772 -0.501744 0.816448
vn 0.302359 -0.594791 0.744850
vn 0.598864 -0.294279 0.744823
s off
g big_rock2_low BIG_ROCKSL_low
usemtl big_rock2_lowSG
f 87/1/1 88/2/2 10/156/3 18/158/4
f 57/67/5 58/68/6 59/69/7 60/70/8
f 78/117/9 79/86/10 80/85/11 81/118/12
f 69/92/13 70/93/14 71/94/15 72/95/16
f 82/12/17 83/11/18 81/17/19 80/18/20
f 30/33/21 45/137/22 46/35/23 33/36/24
f 88/157/25 89/5/26 13/6/27 10/3/28
f 83/11/29 84/16/30 85/27/31 81/17/32
f 86/111/33 78/115/34 81/116/35 85/112/36
f 15/44/37 43/45/38 44/38/39 11/37/40
f 89/110/41 2/135/42 13/114/43
f 40/10/44 41/154/45 8/25/46 14/26/47
f 21/100/48 22/106/49 14/107/50 8/101/51
f 7/47/52 42/48/53 43/45/54 15/44/55
f 24/79/56 25/145/57 6/75/58 17/80/59
f 37/13/60 38/159/61 17/19/62 6/20/63
f 4/9/64 87/1/65 18/158/66
f 33/36/67 46/35/68 47/41/69 35/42/70
f 73/98/71 71/94/72 70/93/73 74/99/74
f 15/140/75 22/106/76 21/100/77 7/105/78
f 11/120/79 23/62/80 22/61/81 15/119/82
f 16/121/83 24/65/84 23/62/85 11/120/86
f 5/151/87 25/152/88 24/146/89 16/43/90
f 63/91/91 64/58/92 65/57/93 66/89/94
f 19/122/95 27/123/96 26/124/97 3/125/98
f 9/126/99 28/127/100 27/123/101 19/122/102
f 12/113/103 29/109/104 28/127/105 9/126/106
f 1/108/107 20/104/108 29/109/109 12/113/110
f 11/37/111 44/38/112 45/34/113 30/138/114
f 9/126/115 19/122/116 32/131/117 31/133/118
f 16/43/119 11/139/120 30/33/121 33/36/122
f 19/122/123 3/125/124 34/130/125 32/131/126
f 47/41/127 36/87/128 5/81/129 35/42/130
f 5/151/131 16/43/132 33/36/133 35/42/134
f 67/90/135 68/60/136 64/58/137 63/91/138
f 59/69/139 58/68/140 61/71/141 62/72/142
f 18/158/143 38/159/144 37/13/145 4/9/146
f 10/3/147 39/7/148 38/8/149 18/4/150
f 13/6/151 40/153/152 39/7/153 10/3/154
f 2/14/155 41/15/156 40/153/157 13/6/158
f 75/96/159 70/93/160 69/92/161 76/97/162
f 74/99/163 70/93/164 75/96/165 77/102/166
f 43/45/167 42/48/168 1/53/169 12/49/170
f 44/38/171 43/45/172 12/49/173 9/50/174
f 45/34/175 44/38/176 9/50/177 31/136/178
f 46/35/179 45/137/180 31/39/181 32/40/182
f 47/41/183 46/35/184 32/40/185 34/46/186
f 3/141/187 36/87/188 47/41/189 34/46/190
f 37/13/191 6/20/192 51/28/193 50/21/194
f 6/75/195 25/145/196 48/143/197 51/73/198
f 25/76/199 5/81/200 53/82/201 48/56/202
f 5/81/203 36/87/204 52/88/205 53/82/206
f 3/83/207 26/77/208 55/147/209 54/84/210
f 36/87/211 3/141/212 54/149/213 52/88/214
f 26/144/215 4/78/216 56/74/217 55/142/218
f 4/9/219 37/13/220 50/21/221 56/22/222
f 48/148/223 49/55/224 58/68/225 57/67/226
f 50/21/227 51/28/228 60/32/229 59/29/230
f 51/73/231 48/143/232 57/67/233 60/70/234
f 49/55/235 55/59/236 61/71/237 58/68/238
f 55/142/239 56/74/240 62/72/241 61/71/242
f 56/22/243 50/21/244 59/29/245 62/30/246
f 49/55/247 48/148/248 65/57/249 64/58/250
f 48/56/251 53/82/252 66/89/253 65/150/254
f 53/82/255 52/88/256 63/91/257 66/89/258
f 54/84/259 55/147/260 68/60/261 67/90/262
f 55/59/263 49/55/264 64/58/265 68/60/266
f 52/88/267 54/149/268 67/90/269 63/91/270
f 21/100/271 8/101/272 72/95/273 71/94/274
f 8/25/275 41/154/276 69/24/277 72/31/278
f 7/105/279 21/100/280 71/94/281 73/98/282
f 42/48/283 7/47/284 73/51/285 74/52/286
f 41/15/287 2/14/288 76/23/289 69/155/290
f 2/103/291 20/104/292 75/96/293 76/97/294
f 20/104/295 1/108/296 77/102/297 75/96/298
f 1/53/299 42/48/300 74/52/301 77/54/302
f 23/62/303 24/65/304 79/66/305 78/63/306
f 24/79/307 17/80/308 80/85/309 79/86/310
f 38/8/311 39/7/312 83/11/313 82/12/314
f 17/19/315 38/159/316 82/12/317 80/18/318
f 39/7/319 40/153/320 84/16/321 83/11/322
f 40/10/323 14/26/324 85/27/325 84/16/326
f 22/61/327 23/62/328 78/63/329 86/64/330
f 14/107/331 22/106/332 86/111/333 85/112/334
f 26/124/335 27/123/336 87/128/337 4/129/338
f 27/123/339 28/127/340 88/132/341 87/128/342
f 28/127/343 29/109/344 89/134/345 88/132/346
f 29/109/347 20/104/348 2/103/349 89/134/350
