# This file uses centimeters as units for non-parametric coordinates.

mtllib UVs_smol_rock2_low.mtl
g default
v -21.210058 1.782133 57.131696
v -9.377832 1.782133 57.131696
v -18.241721 10.006967 57.131696
v -10.580673 9.611287 57.131696
v -20.023496 11.771821 46.398027
v -9.377832 11.014512 45.299469
v -21.210058 1.782133 45.299469
v -9.377832 1.782133 45.299469
v -21.210058 7.413405 56.923739
v -9.377832 8.601013 57.131696
v -9.377832 8.601013 45.299469
v -21.210058 7.413405 45.299469
v -15.086927 1.782133 57.131696
v -15.086927 1.782133 45.299469
v -14.366931 11.729083 45.299469
v -14.678801 10.616987 57.131696
v -15.569259 8.189673 57.131696
v -29.266671 1.645220 48.185807
v -30.376771 2.348728 55.514668
v -26.772695 5.168105 54.152718
v -26.855683 5.708130 48.469411
v -14.527464 6.131238 61.146207
v -15.046896 1.782133 61.146207
v -9.377832 1.782133 61.146207
v -10.743516 6.101794 61.142370
v -19.751223 1.782133 61.146207
v -19.194680 5.354969 61.146207
v -15.155291 7.135763 42.828387
v -14.673063 9.568720 42.828387
v -11.331533 9.165881 42.828387
v -11.331533 7.135763 42.828387
v -15.155291 3.961143 42.828387
v -11.331533 3.961143 42.828387
v -19.256359 7.135763 42.828387
v -19.256359 3.961143 42.828387
v -18.461640 9.592815 43.926945
v -7.916290 1.782133 45.299469
v -7.916290 1.782133 54.591597
v -7.916290 7.413405 46.130747
v -8.704267 6.854344 53.277009
v -14.452814 12.681424 49.057575
v -14.684426 11.530164 54.906565
v -11.640899 11.239407 54.880446
v -9.777543 11.885473 49.039017
v -17.330478 11.353801 54.890723
v -18.653735 12.413912 49.604415
v -9.979252 10.312899 51.215582
v -9.377832 8.601013 51.215582
v -8.310277 7.133875 49.703878
v -7.916290 1.782133 49.945533
v -9.377832 1.782133 50.032359
v -15.086927 1.782133 51.215582
v -21.210058 1.782133 51.814258
v -30.100365 1.645220 51.622932
v -26.815185 5.444613 51.242706
v -21.210058 7.413405 51.111604
v -19.132609 10.889395 51.764861
v -16.150611 3.795262 41.650868
v -16.150611 5.805854 41.650868
v -13.864382 5.805854 41.588609
v -13.864382 3.795262 41.588609
v -18.482854 5.805854 41.714380
v -18.482854 3.795262 41.714380
vt 0.547238 0.156301
vt 0.869155 0.061283
vt 0.555689 0.432240
vt 0.646739 1.000000
vt 0.650241 0.656265
vt 0.890448 0.656265
vt 0.000000 0.156301
vt 0.643105 0.156301
vt 0.215092 0.611246
vt 0.412854 0.611246
vt 0.899334 0.792105
vt 0.855122 1.000000
vt 0.416322 0.367652
vt 0.674495 0.292841
vt 0.646739 0.952264
vt 0.509213 0.052291
vt 0.855122 0.952264
vt 0.416322 0.292841
vt 0.085808 0.052291
vt 0.772158 0.061283
vt 0.314311 0.611246
vt 0.314311 0.304204
vt 0.314311 0.052291
vt 0.772158 0.656265
vt 0.772158 0.367652
vt 0.772158 0.292841
vt 0.772158 0.156301
vt 0.869155 0.156301
vt 0.869155 0.252872
vt 0.772158 0.252872
vt 0.674495 0.156301
vt 0.674495 0.252872
vt 0.772158 0.726194
vt 0.869155 0.726194
vt 0.509213 0.099432
vt 0.412854 0.194018
vt 0.314311 0.194018
vt 0.133003 0.156301
vt 0.215092 0.052291
vt 0.215092 0.000000
vt 0.646739 0.792105
vt 0.855122 0.792105
vt 0.855122 0.904958
vt 0.646739 0.904958
vt 0.772158 0.432240
vt 0.869155 0.432240
vt 0.856203 0.571200
vt 0.772158 0.571200
vt 0.674495 0.432240
vt 0.684073 0.571200
vt 0.979355 0.571200
vt 0.742136 1.000000
vt 0.742136 0.952264
vt 0.742136 0.904958
vt 0.742136 0.792105
vt 0.412854 0.443229
vt 0.742136 0.726194
vt 0.314311 0.443229
vt 0.215092 0.443229
vt 0.547238 0.292841
vt 0.547238 0.367652
vt 0.555689 0.571200
vt 0.314311 0.099432
vt 0.412854 0.099432
vt 0.412854 0.156301
vt 0.314311 0.156301
vt 0.215092 0.099432
vt 0.215092 0.156301
vt 0.215092 0.304204
vt 0.085808 0.443229
vt 0.085808 0.304204
vt 0.085808 0.611246
vt 0.286177 0.804068
vt 0.287482 0.974916
vt 0.143248 0.976018
vt 0.141943 0.805170
vt 0.409344 0.973985
vt 0.408038 0.803137
vt 0.140861 0.663604
vt 0.285095 0.662502
vt 0.406956 0.661570
vt 0.539613 0.972989
vt 0.538308 0.802141
vt 0.037315 0.976828
vt 0.036009 0.805980
vt 0.215092 0.194018
vt 0.133003 0.099432
vt 0.509213 0.156301
vt 0.412854 0.052291
vt 0.085808 0.000000
vt 0.000000 0.099432
vt 0.412854 0.304204
vt 0.643105 0.099432
vt 0.509213 0.000000
vt 0.674495 0.367652
vt 0.979355 0.432240
vt 0.547238 0.252872
vt 0.674495 0.061283
vt 0.561550 0.792105
vt 0.964003 0.252872
vt 0.869155 0.367652
vt 0.869155 0.292841
vt 0.964003 0.156301
vt 0.561550 0.904958
vt 0.646739 0.726194
vt 0.899334 0.904958
vt 0.855122 0.726194
vt 0.674495 0.726194
vt 0.314311 0.000000
vt 0.412854 0.000000
vn -0.007620 -0.011206 0.999908
vn -0.012569 -0.018484 0.999750
vn 0.000000 0.000000 1.000000
vn 0.000000 0.000000 1.000000
vn 0.058885 0.980801 0.185907
vn 0.050750 0.981050 0.186989
vn 0.138261 0.974874 0.174657
vn 0.138261 0.974874 0.174657
vn -0.056696 0.365806 -0.928963
vn -0.068134 0.128353 -0.989385
vn 0.000000 0.000000 -1.000000
vn 0.159803 0.098278 -0.982245
vn 0.000000 -1.000000 0.000000
vn 0.000000 -1.000000 0.000000
vn 0.000000 -1.000000 0.000000
vn 0.000000 -1.000000 0.000000
vn 0.944399 0.321885 0.067090
vn 0.941320 0.330705 0.067456
vn 0.987831 0.144011 0.058750
vn 0.987831 0.144011 0.058750
vn -0.926158 0.362951 0.102458
vn -0.870260 0.480764 0.107304
vn -0.855938 0.505647 0.108126
vn -0.926158 0.362951 0.102458
vn 0.000242 0.000287 1.000000
vn 0.000198 0.000235 1.000000
vn 0.000407 0.000482 1.000000
vn 0.000407 0.000482 1.000000
vn 0.996103 0.072505 0.050214
vn 0.995765 0.076921 0.050348
vn 0.998249 0.033180 0.048979
vn 0.998249 0.033180 0.048979
vn -0.021875 -0.668846 -0.743079
vn -0.017549 0.386515 -0.922116
vn 0.187213 0.290307 -0.938442
vn 0.243270 -0.516346 -0.821100
vn -0.807772 0.584261 -0.078378
vn -0.749960 0.657422 -0.073195
vn -0.759042 0.646821 -0.074013
vn -0.807773 0.584261 -0.078378
vn 0.000000 -1.000000 0.000000
vn 0.000000 -1.000000 0.000000
vn 0.000000 -1.000000 0.000000
vn 0.000000 -1.000000 0.000000
vn -0.302215 0.323917 -0.896518
vn -0.017549 0.386515 -0.922116
vn -0.021875 -0.668846 -0.743079
vn -0.338988 -0.625691 -0.702565
vn -0.132777 0.250130 -0.959065
vn -0.068134 0.128353 -0.989385
vn -0.056696 0.365806 -0.928963
vn -0.201039 0.358733 -0.911534
vn -0.048014 0.978804 0.199089
vn 0.050750 0.981050 0.186989
vn 0.058885 0.980801 0.185907
vn -0.048014 0.978805 0.199089
vn -0.018488 -0.027187 0.999459
vn -0.012569 -0.018484 0.999750
vn -0.007620 -0.011206 0.999908
vn -0.018488 -0.027187 0.999459
vn -0.000000 0.000000 1.000000
vn 0.000198 0.000235 1.000000
vn 0.000242 0.000287 1.000000
vn -0.000000 0.000000 1.000000
vn 0.016374 -0.999865 0.001372
vn -0.007836 -0.999211 0.038931
vn -0.009616 -0.999084 0.041690
vn 0.016374 -0.999865 0.001372
vn -0.303570 0.297618 0.905135
vn -0.303570 0.297618 0.905135
vn -0.303570 0.297618 0.905135
vn -0.303570 0.297618 0.905135
vn -0.331935 0.942792 0.031020
vn -0.330878 0.943164 0.031008
vn -0.302140 0.952770 0.030669
vn -0.302140 0.952770 0.030669
vn -0.415383 0.129648 -0.900360
vn -0.415383 0.129648 -0.900360
vn -0.415383 0.129648 -0.900360
vn -0.415383 0.129648 -0.900360
vn 0.000000 -1.000000 0.000000
vn 0.000000 -1.000000 0.000000
vn 0.000000 -1.000000 0.000000
vn 0.000000 -1.000000 0.000000
vn 0.971986 0.119244 0.202543
vn 0.971986 0.119244 0.202543
vn 0.971986 0.119244 0.202543
vn 0.971986 0.119244 0.202543
vn -0.033104 0.869651 0.492555
vn -0.033104 0.869651 0.492555
vn -0.033104 0.869651 0.492555
vn -0.033104 0.869651 0.492555
vn 0.000000 -1.000000 0.000000
vn 0.000000 -1.000000 0.000000
vn 0.000000 -1.000000 0.000000
vn 0.000000 -1.000000 0.000000
vn -0.139885 0.863965 0.483732
vn -0.139885 0.863965 0.483732
vn -0.139885 0.863965 0.483731
vn -0.139885 0.863965 0.483732
vn -0.913631 0.064314 0.401426
vn -0.913631 0.064314 0.401426
vn -0.913631 0.064314 0.401426
vn -0.913631 0.064314 0.401426
vn 0.100557 0.749685 -0.654111
vn 0.100557 0.749685 -0.654111
vn 0.100557 0.749685 -0.654111
vn 0.100557 0.749685 -0.654111
vn 0.784443 0.000000 -0.620201
vn 0.784443 0.000000 -0.620201
vn 0.784443 0.000000 -0.620201
vn 0.784443 0.000000 -0.620201
vn 0.784443 0.000000 -0.620201
vn 0.784443 0.000000 -0.620201
vn 0.784443 0.000000 -0.620201
vn 0.784443 0.000000 -0.620201
vn 0.000000 -0.750042 -0.661390
vn 0.000000 -0.750042 -0.661390
vn 0.000000 -0.750042 -0.661390
vn 0.000000 -0.750042 -0.661390
vn 0.000000 -0.750042 -0.661390
vn 0.000000 -0.750042 -0.661390
vn 0.000000 -0.750042 -0.661390
vn 0.000000 -0.750042 -0.661390
vn -0.784443 0.000000 -0.620200
vn -0.784443 0.000000 -0.620200
vn -0.784443 0.000000 -0.620201
vn -0.784443 0.000000 -0.620200
vn -0.151582 0.723350 -0.673638
vn -0.151582 0.723350 -0.673638
vn -0.151582 0.723350 -0.673638
vn -0.151582 0.723350 -0.673638
vn -0.642539 0.397893 -0.654847
vn -0.642539 0.397893 -0.654847
vn -0.642539 0.397893 -0.654847
vn -0.642539 0.397893 -0.654847
vn 0.000000 -1.000000 0.000000
vn 0.000000 -1.000000 0.000000
vn 0.000000 -1.000000 0.000000
vn 0.000000 -1.000000 0.000000
vn 0.296812 0.063618 -0.952814
vn 0.296812 0.063618 -0.952814
vn 0.296812 0.063618 -0.952814
vn 0.296812 0.063618 -0.952814
vn 0.729531 0.682090 0.050382
vn 0.870987 0.488697 0.050559
vn 0.787395 0.614353 0.050790
vn 0.729531 0.682090 0.050382
vn 0.951738 0.095320 0.291733
vn 0.951738 0.095320 0.291733
vn 0.951738 0.095320 0.291733
vn 0.951738 0.095320 0.291733
vn 0.160388 0.874284 0.458153
vn 0.160388 0.874284 0.458153
vn 0.160388 0.874284 0.458153
vn 0.160388 0.874284 0.458153
vn 0.964686 0.212614 0.155485
vn 0.831607 0.507660 0.225191
vn 0.994585 0.014798 0.102862
vn 0.150063 0.962866 -0.224434
vn 0.150063 0.962866 -0.224434
vn 0.150063 0.962866 -0.224434
vn 0.150063 0.962866 -0.224434
vn -0.114522 0.895555 0.429961
vn -0.114522 0.895555 0.429961
vn -0.114522 0.895555 0.429961
vn -0.114522 0.895555 0.429961
vn -0.057740 0.975418 -0.212665
vn -0.057740 0.975418 -0.212665
vn -0.057740 0.975418 -0.212665
vn -0.057740 0.975418 -0.212665
vn -0.792171 0.567392 0.224791
vn -0.658614 0.705525 0.261651
vn -0.742358 0.625318 0.240587
vn 0.810639 0.537805 0.231582
vn 0.831607 0.507660 0.225191
vn 0.964686 0.212614 0.155485
vn 0.810639 0.537805 0.231582
vn 0.831191 0.550917 0.074916
vn 0.941320 0.330705 0.067456
vn 0.944399 0.321885 0.067090
vn 0.831191 0.550917 0.074916
vn 0.787395 0.614353 0.050790
vn 0.870987 0.488697 0.050559
vn 0.910689 0.410069 0.049891
vn 0.910689 0.410069 0.049891
vn 0.991417 0.120121 0.051609
vn 0.995765 0.076921 0.050348
vn 0.996103 0.072505 0.050214
vn 0.991417 0.120121 0.051609
vn 0.000000 -1.000000 0.000000
vn 0.000000 -1.000000 0.000000
vn 0.000000 -1.000000 0.000000
vn 0.000000 -1.000000 0.000000
vn 0.000000 -1.000000 0.000000
vn 0.000000 -1.000000 0.000000
vn 0.000000 -1.000000 0.000000
vn 0.000000 -1.000000 0.000000
vn 0.000000 -1.000000 0.000000
vn 0.000000 -1.000000 0.000000
vn 0.000000 -1.000000 0.000000
vn 0.000000 -1.000000 0.000000
vn -0.009616 -0.999084 0.041690
vn -0.007836 -0.999211 0.038931
vn -0.031248 -0.996679 0.075200
vn -0.031248 -0.996679 0.075200
vn -0.759042 0.646821 -0.074013
vn -0.749960 0.657422 -0.073195
vn -0.700151 0.710683 -0.068694
vn -0.700151 0.710683 -0.068694
vn -0.359345 0.932679 0.031318
vn -0.330878 0.943164 0.031008
vn -0.331935 0.942792 0.031020
vn -0.359345 0.932679 0.031318
vn -0.855938 0.505647 0.108126
vn -0.870260 0.480764 0.107304
vn -0.771914 0.625974 0.110928
vn -0.771914 0.625974 0.110928
vn -0.742358 0.625318 0.240587
vn -0.658614 0.705525 0.261651
vn -0.644127 0.717647 0.264734
vn -0.644127 0.717647 0.264734
vn -0.056696 0.365806 -0.928963
vn 0.159803 0.098278 -0.982245
vn 0.187213 0.290307 -0.938442
vn -0.017549 0.386515 -0.922116
vn 0.159803 0.098278 -0.982245
vn 0.442874 -0.145482 -0.884702
vn 0.243270 -0.516346 -0.821100
vn 0.187213 0.290307 -0.938442
vn 0.442874 -0.145482 -0.884702
vn 0.001379 -0.990635 0.136529
vn -0.021875 -0.668846 -0.743079
vn 0.243270 -0.516346 -0.821100
vn -0.201039 0.358733 -0.911534
vn -0.056696 0.365806 -0.928963
vn -0.017549 0.386515 -0.922116
vn -0.302215 0.323917 -0.896518
vn 0.001379 -0.990635 0.136529
vn -0.727984 -0.535104 -0.428605
vn -0.338988 -0.625691 -0.702565
vn -0.021875 -0.668846 -0.743079
vn -0.727984 -0.535104 -0.428605
vn -0.201039 0.358733 -0.911534
vn -0.302215 0.323917 -0.896518
vn -0.338988 -0.625691 -0.702565
s off
g smol_rock2_low SMOL_ROCKS
usemtl smol_rock2_lowSG
f 16/25/1 17/26/2 10/102/3 4/101/4
f 41/48/5 42/45/6 43/46/7 44/47/8
f 28/23/9 29/109/10 30/110/11 31/89/12
f 51/56/13 52/58/14 14/22/15 8/92/16
f 47/52/17 48/53/18 11/17/19 6/12/20
f 12/18/21 56/60/22 57/61/23 5/13/24
f 22/30/25 23/27/26 24/28/27 25/29/28
f 49/54/29 50/55/30 37/42/31 39/43/32
f 58/66/33 59/63/34 60/64/35 61/65/36
f 18/79/37 54/80/38 55/73/39 21/76/40
f 7/69/41 14/22/42 52/58/43 53/59/44
f 62/67/45 59/63/46 58/66/47 63/68/48
f 36/40/49 29/109/50 28/23/51 34/39/52
f 45/49/53 42/45/54 41/48/55 46/50/56
f 9/14/57 17/26/58 16/25/59 3/95/60
f 26/31/61 23/27/62 22/30/63 27/32/64
f 7/69/65 53/59/66 54/70/67 18/71/68
f 1/82/69 9/77/70 20/78/71 19/83/72
f 55/73/73 56/74/74 12/75/75 21/76/76
f 12/75/77 7/84/78 18/85/79 21/76/80
f 13/20/81 2/2/82 24/28/83 23/27/84
f 2/103/85 10/100/86 25/29/87 24/28/88
f 10/102/89 17/26/90 22/30/91 25/29/92
f 1/98/93 13/20/94 23/27/95 26/31/96
f 17/26/97 9/14/98 27/32/99 22/30/100
f 9/97/101 1/1/102 26/31/103 27/32/104
f 15/24/105 6/6/106 30/34/107 29/33/108
f 6/94/109 11/16/110 31/89/111 30/110/112
f 11/93/113 8/8/114 33/88/115 31/35/116
f 8/92/117 14/22/118 32/37/119 33/36/120
f 14/22/121 7/69/122 35/86/123 32/37/124
f 7/7/125 12/91/126 34/87/127 35/38/128
f 5/5/129 15/24/130 29/33/131 36/108/132
f 12/19/133 5/90/134 36/40/135 34/39/136
f 50/55/137 51/57/138 8/107/139 37/42/140
f 8/11/141 11/106/142 39/43/143 37/42/144
f 11/17/145 48/53/146 49/54/147 39/43/148
f 10/104/149 2/99/150 38/41/151 40/44/152
f 16/25/153 4/101/154 43/46/155 42/45/156
f 44/47/157 47/51/158 6/6/159
f 6/6/160 15/24/161 41/48/162 44/47/163
f 3/95/164 16/25/165 42/45/166 45/49/167
f 15/24/168 5/5/169 46/50/170 41/48/171
f 5/5/172 57/62/173 46/50/174
f 4/96/175 47/51/176 44/47/177 43/46/178
f 10/15/179 48/53/180 47/52/181 4/4/182
f 49/54/183 48/53/184 10/15/185 40/44/186
f 38/41/187 50/55/188 49/54/189 40/44/190
f 2/105/191 51/57/192 50/55/193 38/41/194
f 13/21/195 52/58/196 51/56/197 2/10/198
f 53/59/199 52/58/200 13/21/201 1/9/202
f 54/70/203 53/59/204 1/9/205 19/72/206
f 55/73/207 54/80/208 19/81/209 20/78/210
f 9/77/211 56/74/212 55/73/213 20/78/214
f 57/61/215 56/60/216 9/14/217 3/95/218
f 46/50/219 57/62/220 3/3/221 45/49/222
f 28/23/223 31/89/224 60/64/225 59/63/226
f 31/35/227 33/88/228 61/65/229 60/64/230
f 33/36/231 32/37/232 58/66/233 61/65/234
f 34/39/235 28/23/236 59/63/237 62/67/238
f 32/37/239 35/86/240 63/68/241 58/66/242
f 35/38/243 34/87/244 62/67/245 63/68/246
