# This file uses centimeters as units for non-parametric coordinates.

mtllib UVs_smol_rock3_low.mtl
g default
v 23.001411 -0.130758 59.697553
v 33.729970 0.724257 57.941082
v 23.580689 8.511686 59.043007
v 33.631837 7.738235 57.734108
v 23.382191 9.549163 51.914264
v 33.998106 7.718853 49.513806
v 21.328930 -0.178347 54.605801
v 33.474666 0.824018 49.463427
v 22.739769 4.420685 60.374103
v 34.012954 4.077109 58.112339
v 33.789109 4.899143 48.245571
v 21.730967 5.346155 51.007760
v 28.042037 -0.283792 59.350888
v 26.218396 -0.071850 50.955482
v 29.054518 3.983737 49.208797
v 29.012679 10.302056 49.823955
v 27.850553 8.258359 59.270454
v 28.682638 4.464892 61.881786
v 22.339304 8.983077 55.131419
v 28.554093 9.260807 54.704680
v 34.946631 7.718853 53.360119
v 34.537310 3.991649 53.285987
v 35.076592 0.704875 53.408532
v 27.334520 -0.581473 56.667318
v 21.385371 -0.245938 57.288296
v 20.712407 4.238930 57.046061
v 31.418604 4.191451 48.182694
v 31.464102 0.217237 50.959866
v 31.654624 0.476371 54.079216
v 30.721250 -0.374278 59.206351
v 30.294422 4.272944 61.153497
v 29.708805 8.069845 58.594706
v 31.269836 7.915082 54.133471
v 31.351018 7.915082 48.624996
v 22.119367 1.187480 61.143702
v 28.682070 2.877627 62.824097
v 30.478493 2.824926 62.012379
v 34.683962 1.692530 58.622837
v 35.200469 1.738801 53.088204
v 34.229849 1.592716 48.126858
v 31.724498 1.461645 47.400299
v 28.609829 1.383473 50.451522
v 19.995382 1.152491 52.336269
v 19.888390 0.994893 57.315292
v 28.805392 8.146657 58.121131
v 29.527565 4.350252 60.697906
v 29.661494 2.845440 61.579443
v 24.568601 8.476693 57.864086
v 23.797456 4.437506 59.347595
v 23.455440 1.211400 60.194779
v 24.937296 -0.081388 60.633121
v 23.622435 -0.729496 57.054788
v 23.229949 -0.060003 51.788803
v 22.582810 1.241441 50.859632
v 24.884272 9.937695 50.921379
v 25.554305 8.394593 59.148137
v 26.297372 4.393482 61.055741
v 26.125409 2.801086 61.938699
v 35.206214 3.234818 50.724743
v 35.637266 1.770467 50.596185
v 35.006363 1.675512 47.371310
v 34.652070 3.675759 47.324128
v 33.377884 1.915215 46.899046
v 33.179054 3.364689 47.407603
v 23.124419 1.907710 49.396970
v 24.044379 4.396733 48.212504
v 27.202894 4.303027 47.375297
v 25.552465 2.184859 47.912054
v 24.467320 7.963197 49.175789
v 27.185853 9.379393 47.772947
v 22.176322 4.490080 48.835885
v 20.936067 1.968431 49.668230
v 23.203244 7.699916 50.527930
v 25.231671 10.573478 52.478798
v 24.846584 10.039359 55.340003
v 27.278114 10.155988 54.895831
v 27.432186 10.785113 51.862973
v 25.486753 9.570760 57.774589
v 27.061042 9.540575 57.827438
v 23.557285 9.969382 55.283961
v 23.706607 10.358893 53.061497
v 24.147132 9.590536 57.611202
vt 0.084617 0.744813
vt 0.170251 0.898755
vt 0.000000 0.824037
vt 0.000000 0.744813
vt 0.271560 0.898755
vt 0.271560 0.824037
vt 0.084617 0.898755
vt 0.000000 0.898755
vt 0.271560 1.000000
vt 0.633147 0.000000
vt 0.084617 1.000000
vt 0.000000 1.000000
vt 0.724011 0.089996
vt 0.642443 0.079752
vt 0.406033 0.898755
vt 0.406033 1.000000
vt 0.539937 0.009077
vt 0.542200 0.065109
vt 0.180052 0.607121
vt 0.180053 0.497040
vt 0.326019 0.497040
vt 0.326019 0.607121
vt 0.097603 0.607120
vt 0.109636 0.497040
vt 0.177773 0.382548
vt 0.310200 0.382548
vt 0.395066 0.497041
vt 0.362554 0.766044
vt 0.312733 0.693900
vt 0.180052 0.693899
vt 0.028489 0.544881
vt 0.065114 0.497040
vt 0.085493 0.382548
vt 0.065114 0.693899
vt 0.426409 0.823882
vt 0.428456 0.891311
vt 0.028489 0.437109
vt 0.531919 0.164225
vt 0.645041 0.164225
vt 0.645041 0.291299
vt 0.531919 0.291299
vt 0.729095 0.291299
vt 0.729095 0.163652
vt 0.645041 0.406085
vt 0.531919 0.406085
vt 0.475164 0.291299
vt 0.475164 0.164225
vt 0.475164 0.073818
vt 0.729095 0.406085
vt 0.811954 0.211424
vt 0.811954 0.291299
vt 0.531919 0.486903
vt 0.645041 0.486903
vt 0.811954 0.089845
vt 0.811954 0.164225
vt 0.379366 0.164225
vt 0.379366 0.073818
vt 0.729095 0.486903
vt 0.811954 0.406085
vt 0.475164 0.486903
vt 0.475164 0.406085
vt 0.475164 0.018247
vt 0.379366 0.018247
vt 0.418633 0.486903
vt 0.418633 0.406085
vt 0.418633 0.291299
vt 0.424137 0.766044
vt 0.424137 0.710290
vt 0.505940 0.710290
vt 0.505940 0.766044
vt 0.424137 0.607121
vt 0.505940 0.607121
vt 0.563082 0.710290
vt 0.505940 0.822147
vt 0.362554 0.607121
vt 0.362554 0.816223
vt 0.424137 0.559916
vt 0.563082 0.607121
vt 0.670179 0.718219
vt 0.670673 0.766044
vt 0.505940 0.888858
vt 0.652538 0.594283
vt 0.795200 0.710290
vt 0.795200 0.766044
vt 0.711428 0.606984
vt 0.563082 0.499382
vt 0.670673 0.499382
vt 0.795200 0.607121
vt 0.294380 0.332758
vt 0.344791 0.382548
vt 0.294380 0.158271
vt 0.175494 0.158271
vt 0.175494 0.128603
vt 0.294380 0.128603
vt 0.105872 0.158271
vt 0.105872 0.128603
vt 0.175494 0.000002
vt 0.294380 0.000002
vt 0.175494 0.191616
vt 0.105872 0.191616
vt 0.175494 0.282987
vt 0.105872 0.282987
vt 0.175494 0.332758
vt 0.105872 0.332758
vt 0.294380 0.282987
vt 0.294380 0.191616
vt 0.028489 0.367329
vt 0.039355 0.282987
vt 0.395100 0.282987
vt 0.395100 0.332758
vt 0.395100 0.382548
vt 0.932804 0.664486
vt 0.825370 0.664486
vt 0.825370 0.571322
vt 0.825370 0.536229
vt 0.932804 0.749151
vt 0.825370 0.749151
vt 0.740821 0.441929
vt 0.825370 0.441928
vt 0.996646 0.571322
vt 0.996646 0.664486
vt 0.996646 0.749151
vt 0.932804 0.837906
vt 0.825370 0.837906
vt 0.932804 0.441929
vt 0.932804 0.536229
vt 0.996646 0.536229
vt 0.996646 0.837906
vt 0.825370 0.897347
vt 0.932804 0.897347
vt 0.996646 0.441929
vt 0.996646 0.897347
vt 0.505940 0.559916
vt 0.563082 0.766044
vt 0.395066 0.607121
vt 0.362554 0.710290
vt 0.362554 0.898759
vt 0.932804 0.571322
vt 0.731815 0.536229
vt 0.727672 0.005387
vt 0.170251 1.000000
vt 0.084618 0.824037
vt 0.170251 0.824037
vt 0.039355 0.329834
vn 0.413133 0.571865 0.708725
vn 0.344866 0.558265 0.754591
vn 0.408467 0.415403 0.812770
vn 0.261349 0.426905 0.865707
vn 0.607231 0.784696 0.124587
vn 0.569659 0.801331 0.182638
vn 0.283314 0.957448 0.055002
vn 0.364009 0.929672 0.056628
vn -0.491736 0.023297 -0.870433
vn -0.390658 0.092192 -0.915908
vn -0.232866 0.144080 -0.961777
vn -0.333745 0.118108 -0.935235
vn 0.133739 -0.990370 -0.035802
vn 0.146282 -0.988331 -0.042453
vn 0.068465 -0.997218 -0.029484
vn 0.064567 -0.994955 -0.076777
vn 0.999596 -0.022565 0.017269
vn 0.994617 0.087704 0.055185
vn 0.979860 -0.053072 -0.192503
vn 0.979860 -0.053072 -0.192503
vn -0.923546 0.338445 -0.180327
vn -0.928171 0.335193 0.161689
vn -0.925004 0.376855 0.048462
vn -0.914904 0.370736 -0.159705
vn 0.344866 0.558265 0.754591
vn 0.254954 -0.456285 0.852527
vn 0.516517 -0.056055 0.854440
vn 0.408467 0.415403 0.812770
vn 0.969158 0.246419 0.003241
vn 0.969750 0.243188 -0.021074
vn 0.961804 0.221788 -0.160448
vn 0.961804 0.221788 -0.160448
vn -0.341045 -0.473771 -0.811929
vn -0.333049 -0.551521 -0.764790
vn -0.491736 0.023297 -0.870433
vn -0.333745 0.118108 -0.935235
vn -0.971034 0.219929 -0.093405
vn -0.983520 0.009258 0.180563
vn -0.928171 0.335193 0.161689
vn -0.923546 0.338445 -0.180327
vn -0.044597 -0.999002 -0.002517
vn -0.024034 -0.994381 -0.103092
vn 0.064567 -0.994955 -0.076777
vn 0.068465 -0.997218 -0.029484
vn -0.279605 -0.226427 -0.933033
vn -0.398906 0.083587 -0.913174
vn -0.384456 0.097106 -0.918022
vn -0.376741 -0.132331 -0.916818
vn -0.398906 0.083587 -0.913174
vn -0.420322 0.231420 -0.877368
vn -0.382968 0.161213 -0.909586
vn -0.384456 0.097106 -0.918022
vn -0.035051 0.981753 0.186901
vn -0.029576 0.981821 0.187494
vn -0.016774 0.980883 0.193875
vn -0.025760 0.981195 0.191291
vn -0.387049 0.453414 0.802875
vn -0.408568 0.408925 0.815998
vn 0.178110 0.532392 0.827548
vn 0.163468 0.566970 0.807355
vn -0.408568 0.408925 0.815998
vn -0.284179 -0.164419 0.944568
vn 0.117935 -0.366122 0.923063
vn 0.178110 0.532392 0.827548
vn -0.029576 0.981821 0.187494
vn -0.069878 0.912091 0.403989
vn 0.000212 0.908724 0.417398
vn -0.016774 0.980883 0.193875
vn 0.073161 0.997319 0.001730
vn 0.283314 0.957448 0.055002
vn 0.413278 0.884477 0.216570
vn 0.979690 0.130847 0.151939
vn 0.994617 0.087704 0.055185
vn 0.999596 -0.022565 0.017269
vn 0.980600 0.004323 0.195973
vn 0.990782 0.061236 0.120839
vn 0.994893 -0.082964 0.057484
vn 0.994617 0.087704 0.055185
vn 0.979690 0.130847 0.151939
vn 0.074779 -0.996926 0.023362
vn 0.068465 -0.997218 -0.029484
vn 0.146282 -0.988331 -0.042453
vn 0.140557 -0.988441 -0.056818
vn -0.004879 -0.988562 0.150736
vn -0.044597 -0.999002 -0.002517
vn 0.068465 -0.997218 -0.029484
vn 0.074779 -0.996926 0.023362
vn -0.928171 0.335193 0.161689
vn -0.983520 0.009258 0.180563
vn -0.856989 -0.027394 0.514606
vn -0.838749 0.328669 0.434139
vn -0.925004 0.376855 0.048462
vn -0.928171 0.335193 0.161689
vn -0.838749 0.328669 0.434139
vn -0.837809 0.378545 0.393421
vn 0.119558 0.150421 -0.981366
vn -0.126694 0.208477 -0.969787
vn -0.161701 0.337369 -0.927381
vn 0.001606 0.325193 -0.945646
vn 0.169350 -0.985128 -0.029040
vn 0.146282 -0.988331 -0.042453
vn 0.133739 -0.990370 -0.035802
vn 0.145224 -0.989249 -0.017244
vn 0.140557 -0.988441 -0.056818
vn 0.146282 -0.988331 -0.042453
vn 0.169350 -0.985128 -0.029040
vn 0.190544 -0.980886 -0.039436
vn 0.408467 0.415403 0.812770
vn 0.516517 -0.056055 0.854440
vn 0.596620 -0.187982 0.780197
vn 0.518862 0.382179 0.764671
vn 0.261349 0.426905 0.865707
vn 0.408467 0.415403 0.812770
vn 0.518862 0.382179 0.764671
vn 0.441606 0.377730 0.813820
vn 0.065455 0.997854 -0.001932
vn 0.283314 0.957448 0.055002
vn 0.073161 0.997319 0.001730
vn 0.069952 0.997546 0.003107
vn 0.364009 0.929672 0.056628
vn 0.283314 0.957448 0.055002
vn 0.065455 0.997854 -0.001932
vn 0.062044 0.998057 -0.005753
vn -0.333745 0.118108 -0.935235
vn -0.232866 0.144080 -0.961777
vn 0.156263 0.246648 -0.956424
vn 0.077684 0.324863 -0.942565
vn -0.284179 -0.164419 0.944568
vn -0.157935 -0.483278 0.861103
vn 0.132090 -0.638455 0.758240
vn 0.117935 -0.366122 0.923063
vn 0.516517 -0.056055 0.854440
vn 0.254954 -0.456285 0.852527
vn 0.353745 -0.635675 0.686135
vn 0.596620 -0.187982 0.780197
vn 0.516517 -0.056055 0.854440
vn 0.353745 -0.635675 0.686135
vn 0.421971 -0.623132 0.658518
vn 0.857407 -0.489987 0.157371
vn 0.843560 -0.536917 0.011259
vn 0.994893 -0.082964 0.057484
vn 0.990782 0.061236 0.120839
vn 0.396047 -0.914130 -0.086676
vn 0.994893 -0.082964 0.057484
vn 0.843560 -0.536917 0.011259
vn 0.779395 -0.585371 -0.223350
vn -0.123465 -0.813062 -0.568935
vn -0.341045 -0.473771 -0.811929
vn 0.077980 -0.938865 -0.335338
vn 0.089707 -0.927552 -0.362767
vn -0.136018 -0.471512 -0.871307
vn -0.333049 -0.551521 -0.764790
vn -0.341045 -0.473771 -0.811929
vn -0.123465 -0.813062 -0.568935
vn -0.263989 -0.642860 -0.719055
vn -0.290940 -0.685714 -0.667196
vn -0.333049 -0.551521 -0.764790
vn -0.136018 -0.471512 -0.871307
vn -0.660675 -0.750207 -0.026409
vn -0.616857 -0.759877 0.205121
vn -0.983520 0.009258 0.180563
vn -0.971034 0.219929 -0.093405
vn -0.856989 -0.027394 0.514606
vn -0.983520 0.009258 0.180563
vn -0.616857 -0.759877 0.205121
vn -0.557851 -0.737608 0.380443
vn 0.413278 0.884477 0.216570
vn 0.283314 0.957448 0.055002
vn 0.569659 0.801331 0.182638
vn 0.542592 0.804128 0.242842
vn 0.163468 0.566970 0.807355
vn 0.178110 0.532392 0.827548
vn 0.344866 0.558265 0.754591
vn 0.413133 0.571865 0.708725
vn 0.178110 0.532392 0.827548
vn 0.117935 -0.366122 0.923063
vn 0.254954 -0.456285 0.852527
vn 0.344866 0.558265 0.754591
vn 0.353745 -0.635675 0.686135
vn 0.254954 -0.456285 0.852527
vn 0.117935 -0.366122 0.923063
vn 0.132090 -0.638455 0.758240
vn 0.128518 0.988607 0.078352
vn 0.128518 0.988607 0.078352
vn 0.128518 0.988607 0.078352
vn 0.677020 0.094526 0.729869
vn -0.107511 0.298111 0.948457
vn -0.232101 0.333377 0.913777
vn 0.730601 0.089479 0.676916
vn 0.629415 0.028110 0.776560
vn -0.159302 0.032279 0.986702
vn -0.107511 0.298111 0.948457
vn 0.677020 0.094526 0.729869
vn -0.288455 -0.267302 0.919426
vn -0.159302 0.032279 0.986702
vn 0.629415 0.028110 0.776560
vn -0.144572 -0.989490 0.002809
vn -0.044597 -0.999002 -0.002517
vn -0.004879 -0.988562 0.150736
vn -0.133051 -0.972893 0.189150
vn -0.148173 -0.985471 -0.083017
vn -0.024034 -0.994381 -0.103092
vn -0.044597 -0.999002 -0.002517
vn -0.144572 -0.989490 0.002809
vn -0.379649 -0.815808 -0.436261
vn -0.290940 -0.685714 -0.667196
vn -0.263989 -0.642860 -0.719055
vn -0.379649 -0.815808 -0.436261
vn -0.378124 0.039716 -0.924903
vn -0.398906 0.083587 -0.913174
vn -0.279605 -0.226427 -0.933033
vn -0.216818 -0.282626 -0.934405
vn -0.503089 0.406497 -0.762667
vn -0.420322 0.231420 -0.877368
vn -0.398906 0.083587 -0.913174
vn -0.378124 0.039716 -0.924903
vn -0.053352 0.982831 0.176627
vn -0.029576 0.981821 0.187494
vn -0.035051 0.981753 0.186901
vn -0.067286 0.982883 0.171503
vn -0.053352 0.982831 0.176627
vn -0.034087 0.982403 0.183640
vn -0.069878 0.912091 0.403989
vn -0.029576 0.981821 0.187494
vn -0.232101 0.333377 0.913777
vn -0.107511 0.298111 0.948457
vn -0.408568 0.408925 0.815998
vn -0.387049 0.453414 0.802875
vn -0.107511 0.298111 0.948457
vn -0.159302 0.032279 0.986702
vn -0.284179 -0.164419 0.944568
vn -0.408568 0.408925 0.815998
vn -0.288455 -0.267302 0.919426
vn -0.157935 -0.483278 0.861103
vn -0.284179 -0.164419 0.944568
vn -0.159302 0.032279 0.986702
vn 0.994617 0.087704 0.055185
vn 0.994893 -0.082964 0.057484
vn 0.969750 0.243188 -0.021074
vn 0.969158 0.246419 0.003241
vn 0.994893 -0.082964 0.057484
vn 0.396047 -0.914130 -0.086676
vn 0.112912 -0.993579 0.007166
vn 0.112912 -0.993579 0.007166
vn 0.774747 0.631999 -0.018573
vn 0.774747 0.631999 -0.018573
vn 0.774747 0.631999 -0.018573
vn 0.774747 0.631999 -0.018573
vn 0.077980 -0.938865 -0.335338
vn -0.341045 -0.473771 -0.811929
vn 0.059623 -0.954530 -0.292091
vn 0.059623 -0.954530 -0.292091
vn -0.341045 -0.473771 -0.811929
vn -0.333745 0.118108 -0.935235
vn -0.161701 0.337369 -0.927381
vn -0.126694 0.208477 -0.969787
vn -0.333745 0.118108 -0.935235
vn 0.077684 0.324863 -0.942565
vn 0.001606 0.325193 -0.945646
vn -0.161701 0.337369 -0.927381
vn 0.662304 -0.176366 -0.728181
vn 0.513316 -0.492882 -0.702549
vn 0.513316 -0.492882 -0.702549
vn 0.665327 -0.167120 -0.727606
vn -0.026914 -0.943871 -0.329217
vn -0.078263 -0.932418 -0.352804
vn -0.045385 -0.940115 -0.337822
vn -0.026914 -0.943871 -0.329217
vn -0.378752 0.817438 -0.433984
vn -0.316400 0.860558 -0.399164
vn -0.368272 0.831155 -0.416602
vn -0.453636 0.755850 -0.472128
vn 0.719485 0.065176 -0.691443
vn 0.662304 -0.176366 -0.728181
vn 0.665327 -0.167120 -0.727606
vn 0.719485 0.065176 -0.691443
vn -0.078263 -0.932418 -0.352804
vn -0.132382 -0.916903 -0.376515
vn -0.132382 -0.916903 -0.376515
vn -0.045385 -0.940115 -0.337822
vn -0.971034 0.219929 -0.093405
vn -0.923546 0.338445 -0.180327
vn -0.887610 0.350619 -0.298688
vn -0.910513 0.318732 -0.263393
vn -0.524981 0.689531 -0.498941
vn -0.378752 0.817438 -0.433984
vn -0.453636 0.755850 -0.472128
vn -0.609493 0.557037 -0.564117
vn -0.923546 0.338445 -0.180327
vn -0.914904 0.370736 -0.159705
vn -0.814794 0.430494 -0.388311
vn -0.887610 0.350619 -0.298688
vn 0.569659 0.801331 0.182638
vn 0.607231 0.784696 0.124587
vn 0.554342 0.804636 0.212756
vn 0.592904 0.773332 0.224549
vn -0.316400 0.860558 -0.399164
vn -0.378752 0.817438 -0.433984
vn -0.238122 0.903848 -0.355467
vn -0.177835 0.920700 -0.347400
vn -0.387049 0.453414 0.802875
vn 0.163468 0.566970 0.807355
vn 0.000212 0.908724 0.417398
vn -0.069878 0.912091 0.403989
vn 0.542592 0.804128 0.242842
vn 0.569659 0.801331 0.182638
vn 0.592904 0.773332 0.224549
vn 0.633260 0.736836 0.236761
vn -0.378752 0.817438 -0.433984
vn -0.524981 0.689531 -0.498941
vn -0.362092 0.856503 -0.367821
vn -0.238122 0.903848 -0.355467
vn -0.914904 0.370736 -0.159705
vn -0.925004 0.376855 0.048462
vn -0.814086 0.530636 0.235989
vn -0.741571 0.669368 -0.044941
vn -0.925004 0.376855 0.048462
vn -0.799905 0.327406 0.502949
vn -0.799905 0.327405 0.502949
vn -0.814086 0.530636 0.235989
vn -0.232101 0.333377 0.913777
vn -0.387049 0.453414 0.802875
vn -0.069878 0.912091 0.403989
vn -0.458377 0.447489 0.767883
s off
g smol_rock3_low SMOL_ROCKS
usemtl smol_rock3_lowSG
f 45/91/1 46/92/2 31/93/3 32/94/4
f 16/134/5 20/73/6 33/79/7 34/80/8
f 15/112/9 16/113/10 34/114/11 27/138/12
f 28/38/13 29/39/14 24/40/15 14/41/16
f 21/1/17 22/142/18 11/3/19 6/4/20
f 12/19/21 26/20/22 19/21/23 5/22/24
f 46/92/25 47/95/26 37/96/27 31/93/28
f 59/7/29 60/11/30 61/12/31 62/8/32
f 41/120/33 42/121/34 15/112/35 27/138/36
f 43/23/37 44/24/38 26/20/39 12/19/40
f 52/44/41 53/45/42 14/41/43 24/40/44
f 65/128/45 66/123/46 67/116/47 68/122/48
f 66/123/49 69/124/50 70/117/51 67/116/52
f 74/67/53 75/68/54 76/69/55 77/70/56
f 56/105/57 57/101/58 18/99/59 17/106/60
f 57/101/61 58/102/62 36/100/63 18/99/64
f 75/68/65 78/71/66 79/72/67 76/69/68
f 32/85/69 33/79/70 45/82/71
f 10/5/72 22/2/73 21/143/74 4/6/75
f 38/9/76 39/141/77 22/2/78 10/5/79
f 13/42/80 24/40/81 29/39/82 30/43/83
f 51/49/84 52/44/85 24/40/86 13/42/87
f 26/20/88 44/24/89 35/33/90 9/25/91
f 19/21/92 26/20/93 9/25/94 3/26/95
f 61/131/96 63/127/97 64/126/98 62/125/99
f 23/14/100 29/39/101 28/38/102 8/18/103
f 30/43/104 29/39/105 23/14/106 2/13/107
f 31/15/108 37/16/109 38/9/110 10/5/111
f 32/94/112 31/93/113 10/97/114 4/98/115
f 21/83/116 33/79/117 32/85/118 4/88/119
f 34/80/120 33/79/121 21/83/122 6/84/123
f 27/115/124 34/139/125 6/118/126 11/119/127
f 58/59/128 51/49/129 13/42/130 36/51/131
f 37/55/132 47/50/133 30/43/134
f 38/54/135 37/55/136 30/43/137 2/13/138
f 2/13/139 23/14/140 39/10/141 38/140/142
f 40/17/143 39/10/144 23/14/145 8/18/146
f 28/38/147 41/47/148 40/48/149 8/18/150
f 14/41/151 42/46/152 41/47/153 28/38/154
f 53/45/155 54/61/156 42/46/157 14/41/158
f 7/31/159 25/32/160 44/24/161 43/23/162
f 35/33/163 44/24/164 25/32/165 1/37/166
f 45/82/167 33/79/168 20/73/169 17/78/170
f 17/78/171 18/86/172 46/87/173 45/82/174
f 18/99/175 36/100/176 47/95/177 46/92/178
f 30/43/179 47/50/180 36/51/181 13/42/182
f 3/26/183 48/89/184 19/90/185
f 9/25/186 49/103/187 48/89/188 3/26/189
f 35/33/190 50/104/191 49/103/192 9/25/193
f 1/107/194 50/104/195 35/33/196
f 25/53/197 52/44/198 51/49/199 1/58/200
f 7/52/201 53/45/202 52/44/203 25/53/204
f 43/60/205 54/61/206 53/45/207 7/52/208
f 71/130/209 66/123/210 65/128/211 72/132/212
f 73/129/213 69/124/214 66/123/215 71/130/216
f 80/136/217 75/68/218 74/67/219 81/28/220
f 80/136/221 82/75/222 78/71/223 75/68/224
f 48/89/225 49/103/226 57/101/227 56/105/228
f 49/103/229 50/104/230 58/102/231 57/101/232
f 1/144/233 51/108/234 58/102/235 50/104/236
f 22/2/237 39/141/238 60/11/239 59/7/240
f 39/62/241 40/48/242 61/57/243 60/63/244
f 11/3/245 22/142/246 59/7/247 62/8/248
f 40/48/249 41/47/250 63/56/251 61/57/252
f 41/120/253 27/138/254 64/126/255 63/127/256
f 27/115/257 11/119/258 62/125/259 64/126/260
f 15/112/261 42/121/262 68/122/263 67/116/264
f 42/46/265 54/61/266 65/65/267 68/66/268
f 55/35/269 16/74/270 70/81/271 69/36/272
f 16/113/273 15/112/274 67/116/275 70/117/276
f 54/61/277 43/60/278 72/64/279 65/65/280
f 43/23/281 12/19/282 71/30/283 72/34/284
f 5/76/285 55/35/286 69/36/287 73/137/288
f 12/19/289 5/22/290 73/29/291 71/30/292
f 20/73/293 16/134/294 77/70/295 76/69/296
f 16/74/297 55/35/298 74/67/299 77/70/300
f 56/77/301 17/133/302 79/72/303 78/71/304
f 17/78/305 20/73/306 76/69/307 79/72/308
f 55/35/309 5/76/310 81/28/311 74/67/312
f 5/22/313 19/21/314 80/27/315 81/135/316
f 19/90/317 48/89/318 82/110/319 80/111/320
f 48/89/321 56/105/322 78/109/323 82/110/324
